<?xml version="1.0" encoding="iso-8859-1"?>
<!-- Generator: Adobe Illustrator 19.0.0, SVG Export Plug-In . SVG Version: 6.00 Build 0)  -->
<svg version="1.1" id="Capa_1" xmlns="http://www.w3.org/2000/svg" xmlns:xlink="http://www.w3.org/1999/xlink" x="0px" y="0px"
	 viewBox="0 0 511.999 511.999" style="enable-background:new 0 0 511.999 511.999;" xml:space="preserve">
<g>
	<g>
		<path d="M327.974,221.045c4.15,0,7.514-3.364,7.514-7.514c0-4.15-3.364-7.514-7.514-7.514c-7.565,0-13.72-6.155-13.72-13.72
			c0-7.566,6.155-13.721,13.72-13.721c4.15,0,7.514-3.364,7.514-7.514c0-4.15-3.364-7.514-7.514-7.514
			c-15.852,0-28.749,12.897-28.749,28.75c0,8.402,3.624,15.973,9.39,21.234c-5.766,5.261-9.39,12.832-9.39,21.234
			s3.624,15.974,9.39,21.235c-5.766,5.261-9.39,12.832-9.39,21.235c0,8.402,3.624,15.974,9.39,21.235
			c-5.766,5.258-9.39,12.829-9.39,21.231c0,15.852,12.896,28.75,28.749,28.75c4.15,0,7.514-3.364,7.514-7.514
			c0-4.15-3.364-7.514-7.514-7.514c-7.565,0-13.72-6.155-13.72-13.721c0-7.565,6.155-13.72,13.72-13.72
			c4.15,0,7.514-3.364,7.514-7.514c0-4.15-3.364-7.514-7.514-7.514c-7.565,0-13.72-6.155-13.72-13.721
			c0-7.565,6.155-13.72,13.72-13.72c4.15,0,7.514-3.364,7.514-7.514c0-4.15-3.364-7.514-7.514-7.514
			c-7.565,0-13.72-6.155-13.72-13.721C314.254,227.2,320.409,221.045,327.974,221.045z"/>
	</g>
</g>
<g>
	<g>
		<path d="M267.628,242.279c4.15,0,7.514-3.364,7.514-7.514c0-4.15-3.364-7.514-7.514-7.514c-7.566,0-13.721-6.155-13.721-13.72
			s6.155-13.72,13.721-13.72c4.15,0,7.514-3.364,7.514-7.514s-3.364-7.514-7.514-7.514c-15.852,0-28.749,12.896-28.749,28.749
			c0,8.402,3.624,15.973,9.39,21.235c-5.766,5.261-9.39,12.833-9.39,21.235c0,8.402,3.624,15.973,9.39,21.235
			c-5.766,5.257-9.39,12.829-9.39,21.231c0,15.852,12.897,28.749,28.749,28.749c4.15,0,7.514-3.364,7.514-7.514
			c0-4.15-3.364-7.514-7.514-7.514c-7.566,0-13.721-6.155-13.721-13.72c0-7.566,6.155-13.721,13.721-13.721
			c4.15,0,7.514-3.364,7.514-7.514c0-4.15-3.364-7.514-7.514-7.514c-7.566,0-13.721-6.155-13.721-13.72
			C253.907,248.434,260.062,242.279,267.628,242.279z"/>
	</g>
</g>
<g>
	<g>
		<path d="M207.282,263.514c4.15,0,7.514-3.364,7.514-7.514c0-4.15-3.364-7.514-7.514-7.514c-7.566,0-13.721-6.155-13.721-13.721
			c0-7.565,6.155-13.72,13.721-13.72c4.15,0,7.514-3.364,7.514-7.514c0-4.15-3.364-7.514-7.514-7.514
			c-15.852,0-28.749,12.896-28.749,28.749c0,8.402,3.624,15.974,9.39,21.235c-5.766,5.258-9.39,12.829-9.39,21.232
			c0,15.852,12.897,28.75,28.749,28.75c4.15,0,7.514-3.364,7.514-7.514c0-4.15-3.364-7.514-7.514-7.514
			c-7.566,0-13.721-6.155-13.721-13.721C193.561,269.669,199.716,263.514,207.282,263.514z"/>
	</g>
</g>
<g>
	<g>
		<path d="M511.673,272.939c-0.084-0.326-0.185-0.647-0.301-0.962c-0.814-2.203-2.392-4.092-4.435-5.274
			c-0.827-0.478-1.613-0.939-2.36-1.383c-5.228-3.104-8.547-5.368-10.609-6.91c1.68-3.103,5.085-7.773,11.733-12.232
			c0.443-0.297,0.901-0.594,1.373-0.888c0,0,0.001,0,0.001-0.001c0,0,0.001-0.001,0.002-0.001c0.066-0.041,0.125-0.09,0.19-0.133
			c0.22-0.144,0.439-0.29,0.643-0.448c0.065-0.05,0.122-0.107,0.185-0.159c0.196-0.16,0.392-0.32,0.574-0.492
			c0.044-0.042,0.081-0.088,0.124-0.13c2.781-2.737,3.759-6.9,2.457-10.583c-0.22-0.623-0.505-1.232-0.858-1.818
			c-0.452-0.751-0.925-1.521-1.408-2.3c-0.092-0.148-0.184-0.296-0.277-0.445c-11.226-18.013-30.421-42.744-60.179-63.411
			c-26.818-18.624-57.322-30.642-91.051-35.918c-28.364-25.693-77.723-54.838-154.068-51.882c-6.424,0.249-12.22,3.414-15.902,8.684
			c-3.678,5.266-4.654,11.79-2.679,17.9l17.655,54.609c-20.592,11.024-39.126,23.498-54.582,35.131
			c-3.316,2.495-3.981,7.206-1.485,10.522c2.496,3.317,7.207,3.981,10.523,1.485c30.509-22.962,73.399-49.362,119.803-59.857
			c0.125-0.028,0.25-0.057,0.375-0.084c1.668-0.374,3.341-0.725,5.017-1.057c0.349-0.069,0.697-0.134,1.045-0.201
			c1.509-0.29,3.021-0.566,4.536-0.821c0.534-0.089,1.066-0.169,1.599-0.253c1.359-0.216,2.719-0.427,4.083-0.614
			c0.723-0.098,1.441-0.18,2.161-0.269c1.194-0.149,2.388-0.301,3.585-0.425c0.949-0.099,1.891-0.172,2.836-0.255
			c0.983-0.087,1.965-0.184,2.949-0.254c1.318-0.093,2.628-0.153,3.938-0.214c0.624-0.03,1.246-0.076,1.87-0.098
			c1.961-0.07,3.912-0.107,5.854-0.107c1.554,0,3.106,0.014,4.654,0.041c0.011,0,0.022,0.001,0.033,0.001
			c10.834,0.192,21.493,1.051,31.75,2.561c0.008,0.001,0.015,0,0.023,0.001c8.113,1.195,16.025,2.8,23.727,4.816
			c-15.03,29.006-23.536,67.435-23.536,107.189c0,8.367,0.371,16.773,1.101,24.984c0.369,4.133,4.014,7.186,8.151,6.819
			c4.133-0.368,7.186-4.017,6.819-8.151c-0.692-7.769-1.042-15.726-1.042-23.651c0-38.605,8.397-75.646,23.169-102.764
			c52.329,17.934,83.767,52.73,100.248,76.952c0.197,0.291,0.394,0.581,0.588,0.868c0.378,0.563,0.751,1.121,1.114,1.671
			c0.437,0.666,0.864,1.324,1.28,1.973c0.126,0.197,0.261,0.402,0.386,0.597c-0.643,0.474-1.262,0.95-1.859,1.428
			c-8.955,7.163-12.832,14.623-14.426,18.836c-0.618,1.63-0.83,3.348-0.669,5.021c0.216,2.259,1.114,4.433,2.605,6.193
			c0.349,0.413,0.729,0.804,1.142,1.167c0.91,0.797,1.986,1.653,3.192,2.553c2.649,1.978,5.988,4.195,10.025,6.645
			c-0.124,0.195-0.259,0.399-0.385,0.597c-0.417,0.651-0.844,1.311-1.283,1.978c-0.36,0.547-0.73,1.102-1.106,1.661
			c-0.198,0.295-0.4,0.593-0.603,0.891c-16.496,24.251-47.864,58.939-100.034,76.881c-7.189-13.111-13.03-28.848-17.013-45.908
			c-0.943-4.041-4.984-6.555-9.026-5.609c-4.041,0.943-6.552,4.984-5.609,9.026c4.013,17.191,9.83,33.217,16.989,46.933
			c-7.938,2.086-16.099,3.737-24.474,4.95c-0.018,0.002-0.035,0.001-0.053,0.003c-10.045,1.454-20.473,2.284-31.063,2.478
			c-0.085,0.001-0.168,0.005-0.253,0.006c-1.517,0.026-3.037,0.04-4.56,0.04c-1.787,0-3.584-0.039-5.387-0.099
			c-0.344-0.011-0.689-0.022-1.034-0.036c-1.837-0.072-3.681-0.168-5.535-0.302c-0.029-0.002-0.059-0.005-0.088-0.007
			c-28.216-2.05-58.32-11.218-89.677-27.334c-0.077-0.04-0.159-0.069-0.237-0.106c-9.378-4.837-18.871-10.289-28.472-16.373
			c-37.941-24.04-67.582-51.634-81.941-66.016c-0.002-0.002-0.004-0.005-0.006-0.007c-0.024-0.024-0.051-0.051-0.075-0.075
			c-0.001-0.001-0.002-0.002-0.003-0.003c-0.009-0.009-0.018-0.018-0.027-0.027c-2.451-2.456-2.45-6.452,0.027-8.935
			c0.025-0.025,0.053-0.053,0.079-0.079c0.001-0.001,0.002-0.002,0.003-0.003c5.517-5.527,14.433-14.134,25.766-23.959
			c3.136-2.718,3.474-7.464,0.756-10.6c-2.718-3.136-7.463-3.474-10.6-0.755c-8.85,7.672-16.277,14.632-21.833,20.035
			c-12.134-9.29-28.174-20.732-43.534-29.108c-24.573-13.399-41.036-15.322-50.329-5.877c-8.678,8.819-2.851,25.234,2.287,36.814
			c3.225,7.269,6.905,13.966,9.241,18.014c-2.336,4.049-6.016,10.745-9.241,18.013c-5.138,11.578-10.964,27.992-2.287,36.813
			c3.853,3.917,8.938,5.879,15.324,5.878c9.015,0,20.621-3.911,35.005-11.755c15.359-8.375,31.4-19.817,43.534-29.108
			c16.062,15.626,44.424,41.012,79.811,63.435c8.137,5.156,16.211,9.878,24.22,14.184l-17.509,54.156
			c-1.975,6.11-0.999,12.634,2.679,17.9c3.682,5.271,9.477,8.436,15.902,8.684c3.61,0.14,7.152,0.208,10.642,0.207
			c69.928-0.002,115.857-27.323,142.829-51.545c34.067-5.243,64.855-17.343,91.888-36.172
			c29.747-20.721,48.909-45.485,60.108-63.516c0.092-0.148,0.184-0.296,0.275-0.443c0.482-0.78,0.954-1.551,1.405-2.304
			C511.958,278.32,512.355,275.58,511.673,272.939z M323.858,126.462c-0.36-0.01-0.719-0.019-1.078-0.027
			c-2.053-0.045-4.113-0.075-6.187-0.075c-0.559,0-1.116,0.024-1.674,0.029c-1.451,0.014-2.901,0.026-4.361,0.076
			c-0.566,0.019-1.129,0.06-1.694,0.085c-1.477,0.064-2.955,0.128-4.441,0.228c-0.163,0.011-0.326,0.029-0.489,0.041
			c-27.942,1.959-57.418,10.329-87.903,24.987l-16.902-52.278c-0.515-1.593-0.26-3.295,0.7-4.67c0.964-1.38,2.481-2.208,4.162-2.274
			c3.403-0.131,6.739-0.196,10.027-0.196c52.293,0,90.079,16.233,115.922,34.291C327.923,126.583,325.894,126.514,323.858,126.462z
			 M15.264,300.618c-0.204-0.597-1.491-5.654,5.819-21.649c4.549-9.954,9.957-18.688,10.01-18.773c1.512-2.43,1.512-5.508,0-7.939
			c-0.053-0.086-5.397-8.706-9.953-18.65c-7.37-16.086-6.08-21.172-5.875-21.773c2.855-2.624,12.957-1.92,32.314,8.635
			c14.418,7.862,29.645,18.711,41.281,27.607c-0.008,0.02-0.013,0.041-0.022,0.061c-0.157,0.384-0.281,0.777-0.414,1.168
			c-0.091,0.267-0.198,0.53-0.279,0.8c-0.12,0.404-0.207,0.815-0.303,1.225c-0.062,0.264-0.141,0.525-0.192,0.791
			c-0.085,0.438-0.135,0.88-0.193,1.321c-0.032,0.242-0.081,0.483-0.104,0.726c-0.056,0.585-0.077,1.172-0.085,1.759
			c-0.004,0.254,0.002,0.508,0.008,0.762c0.011,0.532,0.026,1.064,0.077,1.595c0.028,0.287,0.084,0.57,0.123,0.856
			c0.054,0.397,0.097,0.795,0.174,1.189c0.059,0.305,0.148,0.604,0.22,0.906c0.089,0.37,0.165,0.742,0.274,1.108
			c0.091,0.306,0.211,0.605,0.316,0.908c0.123,0.354,0.234,0.711,0.376,1.059c0.009,0.023,0.015,0.047,0.025,0.069
			C43.597,299.024,20.191,305.181,15.264,300.618z M203.991,419.412c-1.681-0.066-3.198-0.894-4.162-2.274
			c-0.96-1.375-1.215-3.077-0.7-4.67l16.768-51.866c28.493,13.733,56.074,21.953,82.466,24.567c0.117,0.012,0.233,0.024,0.35,0.035
			c3.787,0.368,7.549,0.621,11.286,0.758c0.411,0.015,0.821,0.029,1.23,0.042c1.793,0.054,3.583,0.09,5.364,0.09
			c1.956,0,3.9-0.027,5.839-0.067c0.405-0.009,0.808-0.02,1.212-0.03c1.792-0.045,3.577-0.105,5.353-0.184
			c0.081-0.004,0.163-0.005,0.245-0.008C301.842,404.749,261.084,421.619,203.991,419.412z"/>
	</g>
</g>
<g>
	<g>
		<path d="M412.407,178.712c-13.621,0-24.704,11.082-24.704,24.704c0,13.622,11.083,24.704,24.704,24.704
			c13.622,0,24.705-11.082,24.705-24.704C437.112,189.795,426.03,178.712,412.407,178.712z M412.407,213.091
			c-5.335,0-9.675-4.34-9.675-9.675c0-5.335,4.34-9.675,9.675-9.675c5.335,0,9.676,4.34,9.676,9.675
			C422.083,208.751,417.742,213.091,412.407,213.091z"/>
	</g>
</g>
<g>
</g>
<g>
</g>
<g>
</g>
<g>
</g>
<g>
</g>
<g>
</g>
<g>
</g>
<g>
</g>
<g>
</g>
<g>
</g>
<g>
</g>
<g>
</g>
<g>
</g>
<g>
</g>
<g>
</g>
</svg>
