<?xml version="1.0" encoding="iso-8859-1"?>
<!-- Generator: Adobe Illustrator 16.0.0, SVG Export Plug-In . SVG Version: 6.00 Build 0)  -->
<!DOCTYPE svg PUBLIC "-//W3C//DTD SVG 1.1//EN" "http://www.w3.org/Graphics/SVG/1.1/DTD/svg11.dtd">
<svg xmlns="http://www.w3.org/2000/svg" xmlns:xlink="http://www.w3.org/1999/xlink" version="1.1" id="Capa_1" x="0px" y="0px" width="512px" height="512px" viewBox="0 0 626.52 626.52" style="enable-background:new 0 0 626.52 626.52;" xml:space="preserve">
<g>
	<path d="M611.531,581.494L470.974,440.937c41.573-46.902,67.614-107.85,67.614-175.292C538.566,119.155,419.389,0,272.899,0   C126.431,0,7.254,119.155,7.254,265.645c0,146.447,119.177,265.602,265.645,265.602c60.042,0,114.819-20.755,159.37-54.432   l141.938,141.98c5.178,5.156,11.908,7.724,18.661,7.724s13.506-2.567,18.662-7.724   C621.843,608.505,621.843,591.807,611.531,581.494z M60.025,265.645c0-117.364,95.51-212.896,212.896-212.896   c117.408,0,212.896,95.509,212.896,212.896s-95.488,212.832-212.896,212.832C155.535,478.477,60.025,383.031,60.025,265.645z" fill="#fdfcfc"/>
</g>
<g>
</g>
<g>
</g>
<g>
</g>
<g>
</g>
<g>
</g>
<g>
</g>
<g>
</g>
<g>
</g>
<g>
</g>
<g>
</g>
<g>
</g>
<g>
</g>
<g>
</g>
<g>
</g>
<g>
</g>
</svg>
