<svg fill="#ffffff" id="Capa_1" enable-background="new 0 0 512 512" height="512" viewBox="0 0 512 512" width="512" xmlns="http://www.w3.org/2000/svg"><path d="m10 206c5.523 0 10-4.477 10-10v-156c0-11.028 8.972-20 20-20h156c5.523 0 10-4.477 10-10s-4.477-10-10-10h-156c-22.056 0-40 17.944-40 40v156c0 5.523 4.477 10 10 10z"/><path d="m472 0h-156c-5.523 0-10 4.477-10 10s4.477 10 10 10h156c11.028 0 20 8.972 20 20v156c0 5.523 4.477 10 10 10s10-4.477 10-10v-156c0-22.056-17.944-40-40-40z"/><path d="m76 206h120c5.523 0 10-4.477 10-10v-120c0-5.523-4.477-10-10-10h-120c-5.523 0-10 4.477-10 10v120c0 5.523 4.477 10 10 10zm10-120h100v100h-100z"/><path d="m156 106h-40c-5.523 0-10 4.477-10 10v40c0 5.523 4.477 10 10 10h40c5.523 0 10-4.477 10-10v-40c0-5.523-4.477-10-10-10zm-10 40h-20v-20h20z"/><path d="m316 206h120c5.523 0 10-4.477 10-10v-120c0-5.523-4.477-10-10-10h-120c-5.523 0-10 4.477-10 10v120c0 5.523 4.477 10 10 10zm10-120h100v100h-100z"/><path d="m396 106h-40c-5.523 0-10 4.477-10 10v40c0 5.523 4.477 10 10 10h40c5.523 0 10-4.477 10-10v-40c0-5.523-4.477-10-10-10zm-10 40h-20v-20h20z"/><path d="m116 346c-5.523 0-10 4.477-10 10v40c0 5.523 4.477 10 10 10h40c5.523 0 10-4.477 10-10v-40c0-5.523-4.477-10-10-10zm30 40h-20v-20h20z"/><path d="m76 246c-5.523 0-10 4.477-10 10s4.477 10 10 10h240c5.523 0 10-4.477 10-10s-4.477-10-10-10h-50v-80c0-5.523-4.477-10-10-10s-10 4.477-10 10v80z"/><path d="m436 246h-60c-5.523 0-10 4.477-10 10s4.477 10 10 10h60c5.523 0 10-4.477 10-10s-4.477-10-10-10z"/><path d="m256 116c5.523 0 10-4.477 10-10v-30c0-5.523-4.477-10-10-10s-10 4.477-10 10v30c0 5.523 4.477 10 10 10z"/><path d="m246 316v120c0 5.523 4.477 10 10 10s10-4.477 10-10v-120c0-5.523-4.477-10-10-10s-10 4.477-10 10z"/><path d="m436 446c5.523 0 10-4.477 10-10v-120c0-5.523-4.477-10-10-10h-120c-5.523 0-10 4.477-10 10s4.477 10 10 10h50v40h-50c-5.523 0-10 4.477-10 10s4.477 10 10 10h60c5.523 0 10-4.477 10-10v-50h40v110c0 5.523 4.477 10 10 10z"/><path d="m376 426h-60c-5.523 0-10 4.477-10 10s4.477 10 10 10h60c5.523 0 10-4.477 10-10s-4.477-10-10-10z"/><circle cx="196" cy="376" r="10"/><path d="m206 316c0-5.523-4.477-10-10-10h-120c-5.523 0-10 4.477-10 10v120c0 5.523 4.477 10 10 10h120c5.523 0 10-4.477 10-10v-15c0-5.523-4.477-10-10-10s-10 4.477-10 10v5h-100v-100h100v5c0 5.523 4.477 10 10 10s10-4.477 10-10z"/><path d="m502 306c-5.523 0-10 4.477-10 10v156c0 11.028-8.972 20-20 20h-156c-5.523 0-10 4.477-10 10s4.477 10 10 10h156c22.056 0 40-17.944 40-40v-156c0-5.523-4.477-10-10-10z"/><path d="m40 512h156c5.523 0 10-4.477 10-10s-4.477-10-10-10h-156c-11.028 0-20-8.972-20-20v-156c0-5.523-4.477-10-10-10s-10 4.477-10 10v156c0 22.056 17.944 40 40 40z"/></svg>