<?xml version="1.0"?>
<svg xmlns="http://www.w3.org/2000/svg" xmlns:xlink="http://www.w3.org/1999/xlink" version="1.1" id="Capa_1" x="0px" y="0px" viewBox="0 0 16 16" style="enable-background:new 0 0 16 16;" xml:space="preserve" width="512px" height="512px"><g><g>
	<path d="M2.121,9c-0.553,0-1,0.448-1,1s0.447,1,1,1h1.465l-3.293,3.293c-0.391,0.391-0.391,1.023,0,1.414   C0.488,15.902,0.744,16,1,16s0.512-0.098,0.707-0.293l3.414-3.414V14c0,0.552,0.447,1,1,1S7,14.552,7,14V9H2.121z" data-original="#030104" class="active-path" data-old_color="#FDFBFD" fill="#FFFEFF"/>
	<path d="M3,7c0.552,0,1-0.448,1-1V4h2c0.553,0,1-0.448,1-1S6.553,2,6,2H2.001L2,6C2,6.552,2.447,7,3,7z" data-original="#030104" class="active-path" data-old_color="#FDFBFD" fill="#FFFEFF"/>
	<path d="M13,9c-0.553,0-1,0.448-1,1v2h-2c-0.553,0-1,0.448-1,1s0.447,1,1,1h4v-4C14,9.448,13.553,9,13,9z" data-original="#030104" class="active-path" data-old_color="#FDFBFD" fill="#FFFEFF"/>
	<path d="M14.293,0.293L11,3.586V2c0-0.552-0.447-1-1-1S9,1.448,9,2v5h5c0.552,0,1-0.448,1-1s-0.447-1-1-1   h-1.586l3.293-3.292c0.391-0.391,0.391-1.023,0-1.414S14.684-0.098,14.293,0.293z" data-original="#030104" class="active-path" data-old_color="#FDFBFD" fill="#FFFEFF"/>
</g></g> </svg>
