<?xml version="1.0" encoding="iso-8859-1"?>
<!-- Generator: Adobe Illustrator 17.1.0, SVG Export Plug-In . SVG Version: 6.00 Build 0)  -->
<!DOCTYPE svg PUBLIC "-//W3C//DTD SVG 1.1//EN" "http://www.w3.org/Graphics/SVG/1.1/DTD/svg11.dtd">
<svg xmlns="http://www.w3.org/2000/svg" xmlns:xlink="http://www.w3.org/1999/xlink" version="1.1" id="Capa_1" x="0px" y="0px" viewBox="0 0 242.667 242.667" style="enable-background:new 0 0 242.667 242.667;" xml:space="preserve" width="512px" height="512px">
<path d="M127.675,58.313h13.771v68.831h-10.713c-6.123,0-12.036-2.632-15.85-7.422c-3.961-4.976-7.406-13.253-7.406-26.993  c0-30.096,17.301-33.983,19.691-34.376C127.338,58.324,127.504,58.313,127.675,58.313z M242.667,0v242.667H0V0H242.667z   M157.984,45.5c0,0-16.907,0-28.493,0c-18.136,0-39.742,19.07-39.742,50.059s27.115,43.504,27.115,43.504l-32.181,58.104h20.262  l25.626-56.614h11.323v56.614h16.09V45.5z" fill="#D80027"/>
<g>
</g>
<g>
</g>
<g>
</g>
<g>
</g>
<g>
</g>
<g>
</g>
<g>
</g>
<g>
</g>
<g>
</g>
<g>
</g>
<g>
</g>
<g>
</g>
<g>
</g>
<g>
</g>
<g>
</g>
</svg>
