<svg width="1199" height="1199" viewBox="0 0 1199 1199" fill="none" xmlns="http://www.w3.org/2000/svg">
<rect width="1199" height="1199" rx="127" fill="url(#paint0_linear)"/>
<path fill-rule="evenodd" clip-rule="evenodd" d="M328 447H486V472V497V724H510V738V774V811H460V774H436H378H354V811H304V774V738V724H328V497V472V447ZM436 724H378V497H436V724ZM110 586H278V618H110V586ZM583 724H703V774H583H533V724V618V568V497V472V447H703V497H583V568H665V618H583V724ZM739 447H909V472V497V774H859V497H789V774H739V497V472V447ZM1115 447H945V472V497V724V755V774H1115V755V724V497V472V447ZM1065 497V724H995V497H1065ZM278 647H110V697H278V647Z" fill="black"/>
<path fill-rule="evenodd" clip-rule="evenodd" d="M315 436H473V461V486V713H497V727V763V800H447V763H423H365H341V800H291V763V727V713H315V486V461V436ZM423 713H365V486H423V713ZM97 575H265V607H97V575ZM570 713H690V763H570H520V713V607V557V486V461V436H690V486H570V557H652V607H570V713ZM726 436H896V461V486V763H846V486H776V763H726V486V461V436ZM1102 436H932V461V486V713V744V763H1102V744V713V486V461V436ZM1052 486V713H982V486H1052ZM265 636H97V686H265V636Z" fill="white"/>
<defs>
<linearGradient id="paint0_linear" x1="599.5" y1="0" x2="599.5" y2="1199" gradientUnits="userSpaceOnUse">
<stop stop-color="#3E3D3D"/>
<stop offset="1" stop-color="#212121"/>
</linearGradient>
</defs>
</svg>
